<svg width="47" height="80" viewBox="0 0 47 80" fill="none" xmlns="http://www.w3.org/2000/svg">
<path fill-rule="evenodd" clip-rule="evenodd" d="M26.1912 20.057C28.8782 15.0354 27.9508 9.46191 24.9136 5.55825C21.1997 0.784857 14.3396 -1.48626 7.15921 2.68122C-0.0950198 6.89156 -0.985484 16.5792 2.39494 22.8863C4.09961 26.0668 7.27713 28.0759 11 28.5C14.7133 28.923 18.8403 27.7565 23.8389 23.3041C30.8783 17.4386 35.9763 13.4147 39.5113 10.9033C41.2809 9.64618 42.6458 8.7774 43.6592 8.2467C44.1664 7.98112 44.5719 7.80745 44.887 7.71063C45.2136 7.61027 45.3898 7.60948 45.4656 7.62617C45.4803 7.62943 45.4838 7.62917 45.4838 7.62917C45.4838 7.62917 45.4819 7.63152 45.4842 7.63901C45.504 7.7019 45.5164 7.85577 45.4513 8.14742C45.3237 8.7197 44.9588 9.5691 44.3645 10.6815C43.1845 12.8902 41.1912 15.9715 38.7423 19.6198C37.6323 21.2734 36.4302 23.0411 35.1715 24.8922C30.8893 31.1895 25.9505 38.4523 21.7455 45.4723C21.6185 45.6844 21.4921 45.8963 21.3664 46.1079C20.2931 43.537 17.7149 38.6665 17.3575 38.0832C17 37.5 16 37.5 16 37.5L16.4927 38.5854C18.2304 41.5775 19.6268 44.4512 20.7296 47.1886C18.423 51.1343 16.3812 54.9812 14.8579 58.511C13.1193 62.5394 12.0336 66.2045 12.0336 69.1523C12.0336 72.0349 12.4176 74.2884 13.0731 75.9474C13.7277 77.6038 14.6726 78.7113 15.8179 79.2082C16.9767 79.711 18.2396 79.545 19.4187 78.8603C20.5896 78.1804 21.6969 76.9829 22.6222 75.365C25.6364 70.0949 26.883 60.1038 21.8389 47.2737C22.0907 46.8458 22.3456 46.4165 22.6034 45.9862C26.792 38.9936 31.7075 31.7648 35.9876 25.4705C37.2494 23.6149 38.4561 21.8404 39.5725 20.1772C42.0183 16.5337 44.0392 13.4124 45.2465 11.1527C45.8459 10.0308 46.268 9.07945 46.4273 8.36513C46.5058 8.01348 46.5367 7.65259 46.4383 7.33932C46.325 6.97872 46.0555 6.73219 45.6808 6.64961C45.3534 6.57745 44.9781 6.63649 44.5933 6.75473C44.197 6.87651 43.7312 7.0802 43.1953 7.36082C42.1227 7.92252 40.715 8.8215 38.9322 10.0881C35.8907 12.2488 31.7196 15.5067 26.1912 20.057ZM21.1941 48.3791C19.0643 52.0618 17.1903 55.6302 15.776 58.9072C14.0522 62.9014 13.0336 66.4135 13.0336 69.1523C13.0336 71.9564 13.4085 74.0751 14.0031 75.5799C14.5988 77.0872 15.3955 77.9349 16.2159 78.2908C17.0227 78.6409 17.9494 78.5571 18.9166 77.9955C19.8919 77.4292 20.8875 76.3839 21.7542 74.8685C24.5233 70.0269 25.8205 60.6372 21.1941 48.3791ZM23.1624 22.5675C28.0869 17.2626 27.5518 10.5776 24.1243 6.17232C20.702 1.77367 14.3875 -0.357801 7.66119 3.54611C1.00876 7.40716 0.0694134 16.4305 3.27633 22.4139C4.86533 25.3786 7.67808 27.1216 11 27.5C14.326 27.8789 18.29 26.9037 23.1624 22.5675Z" fill="#333333"/>
</svg>
